Normalized EMG Linear Envelopes
nRows=150
nColumns=4

endheader
time	 med_gas_r	  soleus_r	 tib_ant_r	
1.6249	  0.084205	  0.067237	  0.025801	
1.68739	  0.074789	  0.070310	  0.025667	
1.74989	  0.069202	  0.070987	  0.025486	
1.81238	  0.067617	  0.069293	  0.025346	
1.87488	  0.067942	  0.067588	  0.025432	
1.93738	  0.068568	  0.067961	  0.025779	
1.99987	  0.068453	  0.070267	  0.026155	
2.06237	  0.066578	  0.072899	  0.026354	
2.12486	  0.063093	  0.074521	  0.026410	
2.18736	  0.059971	  0.074960	  0.026298	
2.24986	  0.059043	  0.074997	  0.025868	
2.31235	  0.059998	  0.075159	  0.025420	
2.37485	  0.061178	  0.074935	  0.025545	
2.43734	  0.061548	  0.073653	  0.026089	
2.49984	  0.061620	  0.071593	  0.026243	
2.56234	  0.062918	  0.069685	  0.025742	
2.62483	  0.066064	  0.068542	  0.025043	
2.68733	  0.069575	  0.068110	  0.024566	
2.74982	  0.071375	  0.067780	  0.024428	
2.81232	  0.070713	  0.066796	  0.024702	
2.87482	  0.068118	  0.065217	  0.025683	
2.93731	  0.064630	  0.064232	  0.027962	
2.99981	  0.061547	  0.064845	  0.031667	
3.0623	  0.060237	  0.066477	  0.035301	
3.1248	  0.061304	  0.067440	  0.036467	
3.1873	  0.063580	  0.066855	  0.034463	
3.24979	  0.064766	  0.065455	  0.030949	
3.31229	  0.063799	  0.064178	  0.027960	
3.37478	  0.061797	  0.062869	  0.026400	
3.43728	  0.060252	  0.060967	  0.025995	
3.49978	  0.059405	  0.058957	  0.025753	
3.56227	  0.059525	  0.059351	  0.024888	
3.62477	  0.063991	  0.067276	  0.023712	
3.68726	  0.079877	  0.088960	  0.023599	
3.74976	  0.114510	  0.126540	  0.026220	
3.81226	  0.170581	  0.174575	  0.032859	
3.87475	  0.239759	  0.222496	  0.044000	
3.93725	  0.301380	  0.258800	  0.058775	
3.99974	  0.339392	  0.277255	  0.074257	
4.06224	  0.360611	  0.283515	  0.086459	
4.12474	  0.382814	  0.290382	  0.093773	
4.18723	  0.410712	  0.305871	  0.098369	
4.24973	  0.436048	  0.329490	  0.102613	
4.31222	  0.450206	  0.353106	  0.106063	
4.37472	  0.448064	  0.361995	  0.107345	
4.43722	  0.430894	  0.344929	  0.106332	
4.49971	  0.407048	  0.306649	  0.103114	
4.56221	  0.382655	  0.264607	  0.097475	
4.6247	  0.358482	  0.235173	  0.090693	
4.6872	  0.338485	  0.226878	  0.085720	
4.7497	  0.330528	  0.240218	  0.084556	
4.81219	  0.336660	  0.267457	  0.086513	
4.87469	  0.349273	  0.296373	  0.089547	
4.93718	  0.358470	  0.317996	  0.092450	
4.99968	  0.362194	  0.329908	  0.094895	
5.06218	  0.366585	  0.333616	  0.096325	
5.12467	  0.374224	  0.329993	  0.095933	
5.18717	  0.378925	  0.317474	  0.093286	
5.24966	  0.377895	  0.297056	  0.089132	
5.31216	  0.379250	  0.275966	  0.085678	
5.37466	  0.390788	  0.262890	  0.084726	
5.43715	  0.409221	  0.261565	  0.085238	
5.49965	  0.422004	  0.267566	  0.084048	
5.56214	  0.416679	  0.270610	  0.079662	
5.62464	  0.393383	  0.262890	  0.074115	
5.68714	  0.366435	  0.246051	  0.070339	
5.74963	  0.349761	  0.230220	  0.069334	
5.81213	  0.347742	  0.224223	  0.070527	
5.87462	  0.358472	  0.226791	  0.073092	
5.93712	  0.376630	  0.231833	  0.075952	
5.99962	  0.394950	  0.239184	  0.077718	
6.06211	  0.406692	  0.252485	  0.077550	
6.12461	  0.409618	  0.269196	  0.075719	
6.1871	  0.408791	  0.280946	  0.073410	
6.2496	  0.408589	  0.284280	  0.072115	
6.3121	  0.404589	  0.284581	  0.072405	
6.37459	  0.392090	  0.287986	  0.073246	
6.43709	  0.375638	  0.294793	  0.073189	
6.49958	  0.365278	  0.301877	  0.072128	
6.56208	  0.367960	  0.307022	  0.071442	
6.62458	  0.379330	  0.308964	  0.072458	
6.68707	  0.385327	  0.305789	  0.075016	
6.74957	  0.377620	  0.296423	  0.077620	
6.81206	  0.360695	  0.283846	  0.079199	
6.87456	  0.343393	  0.273789	  0.080135	
6.93706	  0.333510	  0.268994	  0.080958	
6.99955	  0.336445	  0.267264	  0.081129	
7.06205	  0.350015	  0.266051	  0.079748	
7.12454	  0.364845	  0.266361	  0.076823	
7.18704	  0.374070	  0.269826	  0.073714	
7.24954	  0.377198	  0.273605	  0.071983	
7.31203	  0.374743	  0.272603	  0.072163	
7.37453	  0.367882	  0.265270	  0.074204	
7.43702	  0.362138	  0.252881	  0.077814	
7.49952	  0.363023	  0.238474	  0.081958	
7.56202	  0.369875	  0.229676	  0.085054	
7.62451	  0.377615	  0.234491	  0.085610	
7.68701	  0.381520	  0.252808	  0.083138	
7.7495	  0.381164	  0.275742	  0.079110	
7.812	  0.382288	  0.292138	  0.075972	
7.8745	  0.392051	  0.297823	  0.074845	
7.93699	  0.410857	  0.299067	  0.075057	
7.99949	  0.430803	  0.302118	  0.075462	
8.06198	  0.443803	  0.303239	  0.075509	
8.12448	  0.447483	  0.296189	  0.075581	
8.18698	  0.440197	  0.284127	  0.076299	
8.24947	  0.420470	  0.276851	  0.077225	
8.31197	  0.395483	  0.281445	  0.077302	
8.37446	  0.377585	  0.300640	  0.076643	
8.43696	  0.371746	  0.333388	  0.076504	
8.49946	  0.374894	  0.371254	  0.077352	
8.56195	  0.382125	  0.398366	  0.077873	
8.62445	  0.390899	  0.401866	  0.076466	
8.68694	  0.404087	  0.384668	  0.073362	
8.74944	  0.423373	  0.362936	  0.070342	
8.81194	  0.441254	  0.349220	  0.068831	
8.87443	  0.449558	  0.344131	  0.068996	
8.93693	  0.447773	  0.343382	  0.069745	
8.99942	  0.438844	  0.343434	  0.069373	
9.06192	  0.427856	  0.340644	  0.067272	
9.12442	  0.421401	  0.335068	  0.064877	
9.18691	  0.422652	  0.335411	  0.064590	
9.24941	  0.434278	  0.351304	  0.067890	
9.3119	  0.461610	  0.380483	  0.074145	
9.3744	  0.502812	  0.409282	  0.080762	
9.4369	  0.543398	  0.424755	  0.084664	
9.49939	  0.567770	  0.423710	  0.084430	
9.56189	  0.570162	  0.413273	  0.081441	
9.62438	  0.553094	  0.405048	  0.078471	
9.68688	  0.522930	  0.404344	  0.076741	
9.74938	  0.489939	  0.404602	  0.074985	
9.81187	  0.463004	  0.397540	  0.071714	
9.87437	  0.439208	  0.384303	  0.067222	
9.93686	  0.409591	  0.369380	  0.062941	
9.99936	  0.374093	  0.349896	  0.059956	
10.0619	  0.340938	  0.318999	  0.058443	
10.1244	  0.317653	  0.277017	  0.057898	
10.1868	  0.305896	  0.233463	  0.057868	
10.2493	  0.299478	  0.197448	  0.058751	
10.3118	  0.288645	  0.169810	  0.061739	
10.3743	  0.268810	  0.147029	  0.067927	
10.4368	  0.244573	  0.128571	  0.077162	
10.4993	  0.223294	  0.116327	  0.087250	
10.5618	  0.205904	  0.110896	  0.094922	
10.6243	  0.190647	  0.111145	  0.098261	
10.6868	  0.181298	  0.114418	  0.097318	
10.7493	  0.180257	  0.116761	  0.092020	
10.8118	  0.181025	  0.114217	  0.080864	
10.8743	  0.177051	  0.104466	  0.062780	
10.9368	  0.168990	  0.088995	  0.039803	
